<mxfile host="Electron" modified="2023-11-01T17:50:10.177Z" agent="Mozilla/5.0 (Windows NT 10.0; Win64; x64) AppleWebKit/537.36 (KHTML, like Gecko) draw.io/22.0.2 Chrome/114.0.5735.289 Electron/25.8.4 Safari/537.36" etag="FfbRp9eyigyV_Vki_Ghl" version="22.0.2" type="device">
  <diagram name="Page-1" id="aZqTcHWdBRNuJLzUG_dm">
    <mxGraphModel dx="2846" dy="1505" grid="1" gridSize="10" guides="1" tooltips="1" connect="1" arrows="1" fold="1" page="1" pageScale="1" pageWidth="850" pageHeight="1100" math="0" shadow="0">
      <root>
        <mxCell id="0" />
        <mxCell id="1" parent="0" />
        <mxCell id="zURRKgwcUh4T0i38kErL-66" value="" style="rounded=0;whiteSpace=wrap;html=1;fillColor=#D4E1F5;" vertex="1" parent="1">
          <mxGeometry x="-10" y="10" width="2160" height="1070" as="geometry" />
        </mxCell>
        <mxCell id="zURRKgwcUh4T0i38kErL-105" value="" style="rounded=1;whiteSpace=wrap;html=1;fillColor=#f5f5f5;strokeColor=#666666;fontColor=#333333;" vertex="1" parent="1">
          <mxGeometry x="15" y="200" width="410" height="750" as="geometry" />
        </mxCell>
        <mxCell id="zURRKgwcUh4T0i38kErL-88" value="" style="rounded=1;whiteSpace=wrap;html=1;fillColor=#d5e8d4;strokeColor=#82b366;" vertex="1" parent="1">
          <mxGeometry x="1070" y="50" width="600" height="1000" as="geometry" />
        </mxCell>
        <mxCell id="zURRKgwcUh4T0i38kErL-3" value="" style="verticalLabelPosition=bottom;html=1;verticalAlign=top;align=center;strokeColor=none;fillColor=#000000;shape=mxgraph.azure.computer;pointerEvents=1;" vertex="1" parent="1">
          <mxGeometry x="197.5" y="486.5" width="45" height="45" as="geometry" />
        </mxCell>
        <mxCell id="zURRKgwcUh4T0i38kErL-11" value="Accommodations&lt;br style=&quot;font-size: 14px;&quot;&gt;service" style="shape=hexagon;perimeter=hexagonPerimeter2;whiteSpace=wrap;html=1;fixedSize=1;fillColor=#60a917;strokeColor=#2D7600;fontColor=#ffffff;strokeWidth=4;fontSize=14;fontStyle=1" vertex="1" parent="1">
          <mxGeometry x="1110" y="110" width="120" height="100" as="geometry" />
        </mxCell>
        <mxCell id="zURRKgwcUh4T0i38kErL-12" value="Auth&lt;br&gt;service" style="shape=hexagon;perimeter=hexagonPerimeter2;whiteSpace=wrap;html=1;fixedSize=1;fillColor=#60a917;strokeColor=#2D7600;fontColor=#ffffff;strokeWidth=4;fontSize=14;fontStyle=1" vertex="1" parent="1">
          <mxGeometry x="1210" y="460" width="120" height="100" as="geometry" />
        </mxCell>
        <mxCell id="zURRKgwcUh4T0i38kErL-43" value="Reservations&lt;br style=&quot;font-size: 14px;&quot;&gt;service" style="shape=hexagon;perimeter=hexagonPerimeter2;whiteSpace=wrap;html=1;fixedSize=1;fillColor=#60a917;strokeColor=#2D7600;fontColor=#ffffff;strokeWidth=4;fontSize=14;fontStyle=1" vertex="1" parent="1">
          <mxGeometry x="1310" y="210" width="120" height="100" as="geometry" />
        </mxCell>
        <mxCell id="zURRKgwcUh4T0i38kErL-45" value="Profile&lt;br style=&quot;font-size: 14px;&quot;&gt;service" style="shape=hexagon;perimeter=hexagonPerimeter2;whiteSpace=wrap;html=1;fixedSize=1;fillColor=#60a917;strokeColor=#2D7600;fontColor=#ffffff;strokeWidth=4;fontSize=14;fontStyle=1" vertex="1" parent="1">
          <mxGeometry x="1210" y="880" width="120" height="100" as="geometry" />
        </mxCell>
        <mxCell id="zURRKgwcUh4T0i38kErL-67" value="&lt;font style=&quot;font-size: 23px;&quot;&gt;&lt;b&gt;API&lt;br&gt;&lt;font color=&quot;#97d077&quot;&gt;GATEWAY&lt;/font&gt;&lt;br&gt;&lt;/b&gt;&lt;/font&gt;" style="ellipse;whiteSpace=wrap;html=1;aspect=fixed;strokeWidth=4;" vertex="1" parent="1">
          <mxGeometry x="450" y="440" width="140" height="140" as="geometry" />
        </mxCell>
        <mxCell id="zURRKgwcUh4T0i38kErL-71" value="" style="endArrow=classic;html=1;rounded=0;entryX=0;entryY=0.5;entryDx=0;entryDy=0;strokeWidth=3;exitX=0.5;exitY=0;exitDx=0;exitDy=0;strokeColor=#0000CC;startArrow=classic;startFill=1;" edge="1" parent="1" source="zURRKgwcUh4T0i38kErL-76" target="zURRKgwcUh4T0i38kErL-11">
          <mxGeometry width="50" height="50" relative="1" as="geometry">
            <mxPoint x="825" y="389.9999999999998" as="sourcePoint" />
            <mxPoint x="1040.3000000000002" y="239.99999999999983" as="targetPoint" />
            <Array as="points">
              <mxPoint x="845" y="160" />
            </Array>
          </mxGeometry>
        </mxCell>
        <mxCell id="zURRKgwcUh4T0i38kErL-72" value="" style="endArrow=classic;html=1;rounded=0;entryX=0;entryY=0.5;entryDx=0;entryDy=0;strokeWidth=3;exitX=0.704;exitY=0.044;exitDx=0;exitDy=0;exitPerimeter=0;strokeColor=#0000CC;startArrow=classic;startFill=1;" edge="1" parent="1" source="zURRKgwcUh4T0i38kErL-76" target="zURRKgwcUh4T0i38kErL-43">
          <mxGeometry width="50" height="50" relative="1" as="geometry">
            <mxPoint x="888.9200000000001" y="390.3199999999997" as="sourcePoint" />
            <mxPoint x="1200" y="270" as="targetPoint" />
            <Array as="points">
              <mxPoint x="900" y="260" />
            </Array>
          </mxGeometry>
        </mxCell>
        <mxCell id="zURRKgwcUh4T0i38kErL-73" value="" style="endArrow=classic;html=1;rounded=0;strokeWidth=3;exitX=1;exitY=0.5;exitDx=0;exitDy=0;entryX=0;entryY=0.5;entryDx=0;entryDy=0;strokeColor=#0000CC;startArrow=classic;startFill=1;" edge="1" parent="1" source="zURRKgwcUh4T0i38kErL-76" target="zURRKgwcUh4T0i38kErL-12">
          <mxGeometry width="50" height="50" relative="1" as="geometry">
            <mxPoint x="901.0526315789475" y="505.7894736842104" as="sourcePoint" />
            <mxPoint x="1580" y="530" as="targetPoint" />
          </mxGeometry>
        </mxCell>
        <mxCell id="zURRKgwcUh4T0i38kErL-76" value="&lt;b style=&quot;border-color: var(--border-color); font-size: 24px;&quot;&gt;REST SERVICE&lt;/b&gt;" style="ellipse;whiteSpace=wrap;html=1;strokeWidth=4;strokeColor=#0000CC;" vertex="1" parent="1">
          <mxGeometry x="710" y="420" width="270" height="180" as="geometry" />
        </mxCell>
        <mxCell id="zURRKgwcUh4T0i38kErL-80" value="" style="endArrow=classic;html=1;rounded=0;entryX=0;entryY=0.5;entryDx=0;entryDy=0;strokeWidth=3;exitX=0.5;exitY=1;exitDx=0;exitDy=0;strokeColor=#0000CC;startArrow=classic;startFill=1;" edge="1" parent="1" source="zURRKgwcUh4T0i38kErL-76" target="zURRKgwcUh4T0i38kErL-45">
          <mxGeometry width="50" height="50" relative="1" as="geometry">
            <mxPoint x="808" y="747" as="sourcePoint" />
            <mxPoint x="1210" y="690" as="targetPoint" />
            <Array as="points">
              <mxPoint x="850" y="930" />
            </Array>
          </mxGeometry>
        </mxCell>
        <mxCell id="zURRKgwcUh4T0i38kErL-82" value="" style="endArrow=classic;html=1;rounded=0;exitX=0.5;exitY=1;exitDx=0;exitDy=0;entryX=0.5;entryY=0;entryDx=0;entryDy=0;strokeWidth=3;strokeColor=#2D7600;fillColor=#60a917;startArrow=classic;startFill=1;endFill=1;" edge="1" parent="1" source="zURRKgwcUh4T0i38kErL-11" target="zURRKgwcUh4T0i38kErL-12">
          <mxGeometry width="50" height="50" relative="1" as="geometry">
            <mxPoint x="1160" y="230" as="sourcePoint" />
            <mxPoint x="1260" y="450" as="targetPoint" />
          </mxGeometry>
        </mxCell>
        <mxCell id="zURRKgwcUh4T0i38kErL-83" value="" style="endArrow=classic;html=1;rounded=0;exitX=1;exitY=0.75;exitDx=0;exitDy=0;entryX=0;entryY=0.25;entryDx=0;entryDy=0;strokeWidth=3;strokeColor=#2D7600;fillColor=#60a917;startArrow=classic;startFill=1;endFill=1;" edge="1" parent="1" source="zURRKgwcUh4T0i38kErL-11" target="zURRKgwcUh4T0i38kErL-43">
          <mxGeometry width="50" height="50" relative="1" as="geometry">
            <mxPoint x="1230" y="180" as="sourcePoint" />
            <mxPoint x="1330" y="400" as="targetPoint" />
          </mxGeometry>
        </mxCell>
        <mxCell id="zURRKgwcUh4T0i38kErL-84" value="" style="endArrow=classic;html=1;rounded=0;exitX=0.5;exitY=1;exitDx=0;exitDy=0;entryX=0.5;entryY=0;entryDx=0;entryDy=0;strokeWidth=3;strokeColor=#2D7600;fillColor=#60a917;startArrow=classic;startFill=1;endFill=1;" edge="1" parent="1" source="zURRKgwcUh4T0i38kErL-43" target="zURRKgwcUh4T0i38kErL-12">
          <mxGeometry width="50" height="50" relative="1" as="geometry">
            <mxPoint x="1360" y="380" as="sourcePoint" />
            <mxPoint x="1460" y="600" as="targetPoint" />
          </mxGeometry>
        </mxCell>
        <mxCell id="zURRKgwcUh4T0i38kErL-87" value="" style="endArrow=classic;html=1;rounded=0;exitX=0.5;exitY=1;exitDx=0;exitDy=0;entryX=0.5;entryY=0;entryDx=0;entryDy=0;strokeWidth=3;strokeColor=#2D7600;fillColor=#60a917;startArrow=classic;startFill=1;endFill=1;" edge="1" parent="1" source="zURRKgwcUh4T0i38kErL-12" target="zURRKgwcUh4T0i38kErL-45">
          <mxGeometry width="50" height="50" relative="1" as="geometry">
            <mxPoint x="1190" y="600" as="sourcePoint" />
            <mxPoint x="1290" y="820" as="targetPoint" />
          </mxGeometry>
        </mxCell>
        <mxCell id="zURRKgwcUh4T0i38kErL-89" value="&lt;font style=&quot;font-size: 20px;&quot;&gt;&lt;b&gt;CLIENT&lt;/b&gt;&lt;/font&gt;" style="text;html=1;strokeColor=none;fillColor=none;align=center;verticalAlign=middle;whiteSpace=wrap;rounded=0;" vertex="1" parent="1">
          <mxGeometry x="190" y="531.5" width="60" height="30" as="geometry" />
        </mxCell>
        <mxCell id="zURRKgwcUh4T0i38kErL-90" value="" style="endArrow=classic;html=1;rounded=0;strokeWidth=3;entryX=0;entryY=0.5;entryDx=0;entryDy=0;strokeColor=#0000CC;startArrow=classic;startFill=1;exitX=1;exitY=0.5;exitDx=0;exitDy=0;" edge="1" parent="1" source="zURRKgwcUh4T0i38kErL-67" target="zURRKgwcUh4T0i38kErL-76">
          <mxGeometry width="50" height="50" relative="1" as="geometry">
            <mxPoint x="590" y="350" as="sourcePoint" />
            <mxPoint x="720" y="350" as="targetPoint" />
          </mxGeometry>
        </mxCell>
        <mxCell id="zURRKgwcUh4T0i38kErL-70" value="&lt;font style=&quot;font-size: 18px;&quot;&gt;&lt;b&gt;REST &lt;font color=&quot;#97d077&quot;&gt;API&lt;/font&gt;&lt;/b&gt;&lt;/font&gt;" style="whiteSpace=wrap;html=1;aspect=fixed;strokeColor=#0000CC;" vertex="1" parent="1">
          <mxGeometry x="660" y="467.5" width="80" height="80" as="geometry" />
        </mxCell>
        <mxCell id="zURRKgwcUh4T0i38kErL-91" value="" style="verticalLabelPosition=bottom;html=1;verticalAlign=top;align=center;strokeColor=none;fillColor=#000000;shape=mxgraph.azure.computer;pointerEvents=1;" vertex="1" parent="1">
          <mxGeometry x="47.5" y="663" width="45" height="45" as="geometry" />
        </mxCell>
        <mxCell id="zURRKgwcUh4T0i38kErL-92" value="&lt;font style=&quot;font-size: 20px;&quot;&gt;&lt;b&gt;GUEST&lt;/b&gt;&lt;/font&gt;" style="text;html=1;strokeColor=none;fillColor=none;align=center;verticalAlign=middle;whiteSpace=wrap;rounded=0;" vertex="1" parent="1">
          <mxGeometry x="40" y="708" width="60" height="30" as="geometry" />
        </mxCell>
        <mxCell id="zURRKgwcUh4T0i38kErL-93" value="" style="verticalLabelPosition=bottom;html=1;verticalAlign=top;align=center;strokeColor=none;fillColor=#000000;shape=mxgraph.azure.computer;pointerEvents=1;" vertex="1" parent="1">
          <mxGeometry x="357.5" y="663" width="45" height="45" as="geometry" />
        </mxCell>
        <mxCell id="zURRKgwcUh4T0i38kErL-94" value="&lt;font style=&quot;font-size: 20px;&quot;&gt;&lt;b&gt;HOST&lt;/b&gt;&lt;/font&gt;" style="text;html=1;strokeColor=none;fillColor=none;align=center;verticalAlign=middle;whiteSpace=wrap;rounded=0;" vertex="1" parent="1">
          <mxGeometry x="350" y="708" width="60" height="30" as="geometry" />
        </mxCell>
        <mxCell id="zURRKgwcUh4T0i38kErL-96" value="&lt;font style=&quot;font-size: 20px;&quot;&gt;&lt;b&gt;UNAUTHENTICATED USER&lt;/b&gt;&lt;/font&gt;" style="text;html=1;strokeColor=none;fillColor=none;align=center;verticalAlign=middle;whiteSpace=wrap;rounded=0;" vertex="1" parent="1">
          <mxGeometry x="190" y="780" width="60" height="30" as="geometry" />
        </mxCell>
        <mxCell id="zURRKgwcUh4T0i38kErL-101" value="" style="verticalLabelPosition=bottom;html=1;verticalAlign=top;align=center;strokeColor=none;fillColor=#000000;shape=mxgraph.azure.computer;pointerEvents=1;" vertex="1" parent="1">
          <mxGeometry x="197.5" y="721.5" width="45" height="45" as="geometry" />
        </mxCell>
        <mxCell id="zURRKgwcUh4T0i38kErL-102" value="" style="endArrow=classic;html=1;rounded=0;strokeWidth=3;exitX=0.5;exitY=0;exitDx=0;exitDy=0;exitPerimeter=0;entryX=0.25;entryY=1;entryDx=0;entryDy=0;" edge="1" parent="1" source="zURRKgwcUh4T0i38kErL-91" target="zURRKgwcUh4T0i38kErL-89">
          <mxGeometry width="50" height="50" relative="1" as="geometry">
            <mxPoint x="92.5" y="640" as="sourcePoint" />
            <mxPoint x="142.5" y="590" as="targetPoint" />
          </mxGeometry>
        </mxCell>
        <mxCell id="zURRKgwcUh4T0i38kErL-103" value="" style="endArrow=classic;html=1;rounded=0;strokeWidth=3;entryX=0.5;entryY=1;entryDx=0;entryDy=0;exitX=0.5;exitY=0;exitDx=0;exitDy=0;exitPerimeter=0;" edge="1" parent="1" source="zURRKgwcUh4T0i38kErL-101" target="zURRKgwcUh4T0i38kErL-89">
          <mxGeometry width="50" height="50" relative="1" as="geometry">
            <mxPoint x="102.5" y="650" as="sourcePoint" />
            <mxPoint x="220" y="558" as="targetPoint" />
          </mxGeometry>
        </mxCell>
        <mxCell id="zURRKgwcUh4T0i38kErL-104" value="" style="endArrow=classic;html=1;rounded=0;strokeWidth=3;entryX=0.75;entryY=1;entryDx=0;entryDy=0;exitX=0.5;exitY=0;exitDx=0;exitDy=0;exitPerimeter=0;" edge="1" parent="1" source="zURRKgwcUh4T0i38kErL-93" target="zURRKgwcUh4T0i38kErL-89">
          <mxGeometry width="50" height="50" relative="1" as="geometry">
            <mxPoint x="112.5" y="660" as="sourcePoint" />
            <mxPoint x="230" y="568" as="targetPoint" />
          </mxGeometry>
        </mxCell>
        <mxCell id="zURRKgwcUh4T0i38kErL-106" value="" style="endArrow=classic;html=1;rounded=0;strokeWidth=3;entryX=0;entryY=0.5;entryDx=0;entryDy=0;strokeColor=#0000CC;startArrow=classic;startFill=1;exitX=1;exitY=0.5;exitDx=0;exitDy=0;exitPerimeter=0;" edge="1" parent="1" source="zURRKgwcUh4T0i38kErL-3">
          <mxGeometry width="50" height="50" relative="1" as="geometry">
            <mxPoint x="330" y="509.29" as="sourcePoint" />
            <mxPoint x="450" y="509.29" as="targetPoint" />
          </mxGeometry>
        </mxCell>
        <mxCell id="zURRKgwcUh4T0i38kErL-113" value="" style="endArrow=classic;html=1;rounded=0;strokeWidth=3;exitX=1;exitY=0.5;exitDx=0;exitDy=0;entryX=0;entryY=0.5;entryDx=0;entryDy=0;strokeColor=#0000CC;startArrow=classic;startFill=1;entryPerimeter=0;" edge="1" parent="1" source="zURRKgwcUh4T0i38kErL-11" target="zURRKgwcUh4T0i38kErL-109">
          <mxGeometry width="50" height="50" relative="1" as="geometry">
            <mxPoint x="1470" y="159.23000000000002" as="sourcePoint" />
            <mxPoint x="1700" y="159.23000000000002" as="targetPoint" />
          </mxGeometry>
        </mxCell>
        <mxCell id="zURRKgwcUh4T0i38kErL-114" value="" style="image;aspect=fixed;html=1;points=[];align=center;fontSize=12;image=img/lib/azure2/databases/Azure_Database_PostgreSQL_Server_Group.svg;" vertex="1" parent="1">
          <mxGeometry x="1700" y="457.62" width="92.45" height="104.77" as="geometry" />
        </mxCell>
        <mxCell id="zURRKgwcUh4T0i38kErL-116" value="" style="endArrow=classic;html=1;rounded=0;strokeWidth=3;exitX=1;exitY=0.5;exitDx=0;exitDy=0;entryX=0.007;entryY=0.498;entryDx=0;entryDy=0;strokeColor=#0000CC;startArrow=classic;startFill=1;entryPerimeter=0;" edge="1" parent="1" source="zURRKgwcUh4T0i38kErL-12" target="zURRKgwcUh4T0i38kErL-114">
          <mxGeometry width="50" height="50" relative="1" as="geometry">
            <mxPoint x="1320" y="420.77" as="sourcePoint" />
            <mxPoint x="1790" y="420" as="targetPoint" />
          </mxGeometry>
        </mxCell>
        <mxCell id="zURRKgwcUh4T0i38kErL-119" value="" style="endArrow=classic;html=1;rounded=0;strokeWidth=3;exitX=1;exitY=0.5;exitDx=0;exitDy=0;strokeColor=#0000CC;startArrow=classic;startFill=1;" edge="1" parent="1" source="zURRKgwcUh4T0i38kErL-43" target="zURRKgwcUh4T0i38kErL-122">
          <mxGeometry width="50" height="50" relative="1" as="geometry">
            <mxPoint x="1409" y="430" as="sourcePoint" />
            <mxPoint x="1700" y="260" as="targetPoint" />
          </mxGeometry>
        </mxCell>
        <mxCell id="zURRKgwcUh4T0i38kErL-121" value="" style="group" vertex="1" connectable="0" parent="1">
          <mxGeometry x="1700" y="70" width="80" height="100" as="geometry" />
        </mxCell>
        <mxCell id="zURRKgwcUh4T0i38kErL-109" value="" style="shape=cylinder3;whiteSpace=wrap;html=1;boundedLbl=1;backgroundOutline=1;size=15;" vertex="1" parent="zURRKgwcUh4T0i38kErL-121">
          <mxGeometry width="80" height="100" as="geometry" />
        </mxCell>
        <mxCell id="zURRKgwcUh4T0i38kErL-112" value="" style="dashed=0;outlineConnect=0;html=1;align=center;labelPosition=center;verticalLabelPosition=bottom;verticalAlign=top;shape=mxgraph.weblogos.mongodb" vertex="1" parent="zURRKgwcUh4T0i38kErL-121">
          <mxGeometry x="26" y="35" width="28.68" height="60" as="geometry" />
        </mxCell>
        <mxCell id="zURRKgwcUh4T0i38kErL-122" value="" style="image;aspect=fixed;html=1;points=[];align=center;fontSize=12;image=img/lib/azure2/databases/Azure_Database_PostgreSQL_Server_Group.svg;" vertex="1" parent="1">
          <mxGeometry x="1700" y="205.23" width="92.45" height="104.77" as="geometry" />
        </mxCell>
        <mxCell id="zURRKgwcUh4T0i38kErL-124" value="" style="endArrow=classic;html=1;rounded=0;strokeWidth=3;exitX=1;exitY=0.5;exitDx=0;exitDy=0;entryX=0.014;entryY=0.617;entryDx=0;entryDy=0;strokeColor=#0000CC;startArrow=classic;startFill=1;entryPerimeter=0;" edge="1" parent="1" source="zURRKgwcUh4T0i38kErL-45" target="zURRKgwcUh4T0i38kErL-125">
          <mxGeometry width="50" height="50" relative="1" as="geometry">
            <mxPoint x="1350" y="770" as="sourcePoint" />
            <mxPoint x="1721" y="770" as="targetPoint" />
          </mxGeometry>
        </mxCell>
        <mxCell id="zURRKgwcUh4T0i38kErL-125" value="" style="image;aspect=fixed;html=1;points=[];align=center;fontSize=12;image=img/lib/azure2/databases/Azure_Database_PostgreSQL_Server_Group.svg;" vertex="1" parent="1">
          <mxGeometry x="1700" y="864.61" width="92.45" height="104.77" as="geometry" />
        </mxCell>
      </root>
    </mxGraphModel>
  </diagram>
</mxfile>
